Coordinates
version=1
nRows=29
nColumns=24
inDegrees=yes

Units are S.I. units (second, meters, Newtons, ...)
Angles are in degrees.

endheader
time	pelvis_tilt	pelvis_list	pelvis_rotation	pelvis_tx	pelvis_ty	pelvis_tz	hip_flexion_r	hip_adduction_r	hip_rotation_r	knee_angle_r	ankle_angle_r	subtalar_angle_r	mtp_angle_r	hip_flexion_l	hip_adduction_l	hip_rotation_l	knee_angle_l	ankle_angle_l	subtalar_angle_l	mtp_angle_l	lumbar_extension	lumbar_bending	lumbar_rotation
      5.04000000	     62.33058359	     -0.78141342	     -0.53103962	      0.65331395	      1.01652833	     -0.20709807	      0.89756555	     -6.50356386	      5.99707527	    -53.76933958	    -14.50303672	     25.48205678	     68.03545169	     -5.93629242	    -10.36694303	      4.37664781	    -54.05387736	    -11.69565859	     32.80207521	     33.57361895	      0.00000000	      0.00000000	      0.00000000
      5.05000000	     62.37144260	     -0.77681785	     -0.50989207	      0.65334442	      1.01657418	     -0.20710375	      0.81326526	     -6.58888993	      6.04872586	    -53.92797377	    -14.52701684	     25.41875186	     68.10265217	     -5.99082561	    -10.37347854	      4.38806209	    -54.04052591	    -11.69579907	     32.80318833	     33.56943064	      0.00000000	      0.00000000	      0.00000000
      5.06000000	     62.41021984	     -0.77443647	     -0.49287429	      0.65336786	      1.01660149	     -0.20710388	      0.73312607	     -6.68223121	      6.11548310	    -54.09966010	    -14.55409048	     25.35377200	     68.17140476	     -6.04235621	    -10.38127439	      4.39675247	    -54.03129324	    -11.69573609	     32.80825779	     33.56565212	      0.00000000	      0.00000000	      0.00000000
      5.07000000	     62.44343359	     -0.77390705	     -0.48097596	      0.65338658	      1.01662339	     -0.20711067	      0.66359220	     -6.78261372	      6.19874553	    -54.28420529	    -14.58172347	     25.28855095	     68.24065441	     -6.08597590	    -10.39027024	      4.40143676	    -54.02718291	    -11.69519179	     32.81737386	     33.56256688	      0.00000000	      0.00000000	      0.00000000
      5.08000000	     62.46834028	     -0.77462935	     -0.47407065	      0.65340377	      1.01664051	     -0.20712096	      0.60808713	     -6.88866574	      6.29887641	    -54.48132121	    -14.60784491	     25.22382913	     68.31004024	     -6.11821854	    -10.40049459	      4.40202945	    -54.02832788	    -11.69390191	     32.83021861	     33.56035408	      0.00000000	      0.00000000	      0.00000000
      5.09000000	     62.48333716	     -0.77620394	     -0.47122278	      0.65342105	      1.01664110	     -0.20711910	      0.56662617	     -6.99886457	      6.41494576	    -54.69057005	    -14.63109638	     25.15942721	     68.37993040	     -6.13755357	    -10.41201014	      4.39951645	    -54.03398494	    -11.69166998	     32.84610332	     33.55905886	      0.00000000	      0.00000000	      0.00000000
      5.10000000	     62.48883465	     -0.77820705	     -0.47087745	      0.65344113	      1.01662416	     -0.20710366	      0.53695853	     -7.11137841	      6.54479653	    -54.91081447	    -14.65098908	     25.09422746	     68.45133887	     -6.14465053	    -10.42478249	      4.39549131	    -54.04277436	    -11.68839508	     32.86405592	     33.55858601	      0.00000000	      0.00000000	      0.00000000
      5.11000000	     62.48721594	     -0.78026811	     -0.47115288	      0.65346370	      1.01659814	     -0.20708462	      0.51568843	     -7.22448079	      6.68538280	    -55.13989982	    -14.66796735	     25.02639515	     68.52572275	     -6.14228710	    -10.43863792	      4.39159543	    -54.05308367	    -11.68408053	     32.88294000	     33.55872480	      0.00000000	      0.00000000	      0.00000000
      5.12000000	     62.48202293	     -0.78228407	     -0.47030498	      0.65348453	      1.01657381	     -0.20706670	      0.49905443	     -7.33716337	      6.83323930	    -55.37475938	    -14.68338381	     24.95379853	     68.60467229	     -6.13481274	    -10.45329483	      4.38905606	    -54.06347337	    -11.67883219	     32.90159077	     33.55920372	      0.00000000	      0.00000000	      0.00000000
      5.13000000	     62.47694971	     -0.78435746	     -0.46730211	      0.65349948	      1.01656072	     -0.20704777	      0.48343598	     -7.44925379	      6.98494887	    -55.61190168	    -14.69937816	     24.87449580	     68.68953225	     -6.12718809	    -10.46838361	      4.38843267	    -54.07291191	    -11.67285144	     32.91895207	     33.55976256	      0.00000000	      0.00000000	      0.00000000
      5.14000000	     62.47494570	     -0.78662901	     -0.46225588	      0.65350591	      1.01655811	     -0.20702678	      0.46561748	     -7.56113193	      7.13759907	    -55.84815415	    -14.71861076	     24.78709726	     68.78102304	     -6.12383868	    -10.48351499	      4.38964170	    -54.08079170	    -11.66643057	     32.93419231	     33.56021840	      0.00000000	      0.00000000	      0.00000000
      5.15000000	     62.47791538	     -0.78920961	     -0.45632157	      0.65350588	      1.01655724	     -0.20700834	      0.44327375	     -7.67334518	      7.28923775	    -56.08123059	    -14.74383468	     24.69087629	     68.87893108	     -6.12771543	    -10.49844116	      4.39220991	    -54.08682985	    -11.65995641	     32.94678196	     33.56050545	      0.00000000	      0.00000000	      0.00000000
      5.16000000	     62.48675960	     -0.79234728	     -0.45106862	      0.65350704	      1.01655611	     -0.20699645	      0.41550525	     -7.78628730	      7.43911596	    -56.30995804	    -14.77738168	     24.58565477	     68.98192131	     -6.13983630	    -10.51313049	      4.39554716	    -54.09096808	    -11.65390672	     32.95652401	     33.56068324	      0.00000000	      0.00000000	      0.00000000
      5.17000000	     62.50121947	     -0.79657881	     -0.44770232	      0.65351299	      1.01656250	     -0.20698738	      0.38291835	     -7.89983468	      7.58748658	    -56.53422747	    -14.82068456	     24.47160620	     69.08750832	     -6.15937203	    -10.52763025	      4.39908309	    -54.09332048	    -11.64881271	     32.96353575	     33.56091810	      0.00000000	      0.00000000	      0.00000000
      5.18000000	     62.51975405	     -0.80243453	     -0.44663670	      0.65351617	      1.01657896	     -0.20697539	      0.34736190	     -8.01293459	      7.73493348	    -56.75458763	    -14.87392328	     24.34913446	     69.19220624	     -6.18415092	    -10.54189698	      4.40231700	    -54.09416828	    -11.64517961	     32.96818915	     33.56144775	      0.00000000	      0.00000000	      0.00000000
      5.19000000	     62.54004191	     -0.80991311	     -0.44755498	      0.65350754	      1.01659444	     -0.20696169	      0.31173349	     -8.12359652	      7.88150926	    -56.97149975	    -14.93581559	     24.21891218	     69.29185761	     -6.21131357	    -10.55579454	      4.40486475	    -54.09395957	    -11.64338410	     32.97102274	     33.56253961	      0.00000000	      0.00000000	      0.00000000
      5.20000000	     62.55993284	     -0.81833827	     -0.44968172	      0.65348920	      1.01659982	     -0.20695116	      0.27971528	     -8.22959683	      8.02615206	    -57.18469933	    -15.00356040	     24.08208708	     69.38211710	     -6.23787842	    -10.56922876	      4.40647572	    -54.09327035	    -11.64358204	     32.97263838	     33.56444921	      0.00000000	      0.00000000	      0.00000000
      5.21000000	     62.57781034	     -0.82673399	     -0.45220580	      0.65347112	      1.01660214	     -0.20694449	      0.25473746	     -8.32952041	      8.16662074	    -57.39327329	    -15.07297820	     23.94060875	     69.45904390	     -6.26115632	    -10.58229158	      4.40698501	    -54.09272064	    -11.64566155	     32.97359745	     33.56737851	      0.00000000	      0.00000000	      0.00000000
      5.22000000	     62.59214352	     -0.83440526	     -0.45481664	      0.65345822	      1.01661147	     -0.20693932	      0.23840021	     -8.42344834	      8.29986980	    -57.59635986	    -15.13890787	     23.79755861	     69.51973610	     -6.27909044	    -10.59531530	      4.40624220	    -54.09286752	    -11.64926079	     32.97433078	     33.57143367	      0.00000000	      0.00000000	      0.00000000
      5.23000000	     62.60148458	     -0.84136548	     -0.45784278	      0.65344724	      1.01662148	     -0.20693186	      0.22991614	     -8.51284205	      8.42275294	    -57.79353227	    -15.19586951	     23.65732021	     69.56292491	     -6.29055718	    -10.60876529	      4.40407773	    -54.09409833	    -11.65384545	     32.97507760	     33.57658837	      0.00000000	      0.00000000	      0.00000000
      5.24000000	     62.60545483	     -0.84811552	     -0.46170334	      0.65343730	      1.01661713	     -0.20691797	      0.22723874	     -8.59945741	      8.53285735	    -57.98434888	    -15.23891664	     23.52546228	     69.58944117	     -6.29556115	    -10.62299164	      4.40033641	    -54.09654570	    -11.65882193	     32.97586658	     33.58266358	      0.00000000	      0.00000000	      0.00000000
      5.25000000	     62.60524063	     -0.85489551	     -0.46623674	      0.65343431	      1.01659645	     -0.20689914	      0.22833957	     -8.68393700	      8.62910474	    -58.16778788	    -15.26452754	     23.40827809	     69.60247007	     -6.29520497	    -10.63799132	      4.39497576	    -54.10004297	    -11.66365042	     32.97654344	     33.58933345	      0.00000000	      0.00000000	      0.00000000
      5.26000000	     62.60255963	     -0.86138421	     -0.47059752	      0.65344040	      1.01657309	     -0.20687892	      0.23124998	     -8.76535647	      8.71188242	    -58.34231411	    -15.27135201	     23.31198273	     69.60752279	     -6.29132643	    -10.65334552	      4.38820239	    -54.10411686	    -11.66792235	     32.97683812	     33.59616114	      0.00000000	      0.00000000	      0.00000000
      5.27000000	     62.59848491	     -0.86701444	     -0.47376153	      0.65345139	      1.01656089	     -0.20685701	      0.23379127	     -8.84190303	      8.78267661	    -58.50617605	    -15.26065744	     23.24163121	     69.61207861	     -6.28588660	    -10.66837590	      4.38060371	    -54.10802284	    -11.67138415	     32.97645873	     33.60266142	      0.00000000	      0.00000000	      0.00000000
      5.28000000	     62.59351385	     -0.87136592	     -0.47512050	      0.65346585	      1.01656031	     -0.20683529	      0.23422562	     -8.91191146	      8.84335168	    -58.65737400	    -15.23637139	     23.19988367	     69.62488882	     -6.28044536	    -10.68238463	      4.37319018	    -54.11087895	    -11.67391927	     32.97519651	     33.60837838	      0.00000000	      0.00000000	      0.00000000
      5.29000000	     62.58823284	     -0.87442146	     -0.47464754	      0.65348373	      1.01655868	     -0.20682030	      0.23231277	     -8.97469690	      8.89540929	    -58.79355278	    -15.20470239	     23.18583168	     69.65497747	     -6.27598208	    -10.69476728	      4.36725568	    -54.11192667	    -11.67551165	     32.97302635	     33.61296233	      0.00000000	      0.00000000	      0.00000000
      5.30000000	     62.58344568	     -0.87650851	     -0.47263427	      0.65350146	      1.01654856	     -0.20681383	      0.22956726	     -9.03077687	      8.93952715	    -58.91225708	    -15.17342355	     23.19417627	     69.71041635	     -6.27291894	    -10.70491875	      4.36406516	    -54.11079611	    -11.67620593	     32.97019121	     33.61623055	      0.00000000	      0.00000000	      0.00000000
      5.31000000	     62.57960075	     -0.87778020	     -0.46947466	      0.65351618	      1.01654075	     -0.20680973	      0.22826495	     -9.08123007	      8.97541365	    -59.01156533	    -15.15095559	     23.21504660	     69.79699451	     -6.27105242	    -10.71206402	      4.36448432	    -54.10759347	    -11.67607571	     32.96725610	     33.61819837	      0.00000000	      0.00000000	      0.00000000
      5.32000000	     62.57612516	     -0.87764505	     -0.46572538	      0.65352998	      1.01654839	     -0.20680509	      0.22986007	     -9.12659838	      9.00193545	    -59.09075776	    -15.14539003	     23.23469220	     69.91693466	     -6.26944373	    -10.71525731	      4.36865892	    -54.10278885	    -11.67521140	     32.96510699	     33.61907130	      0.00000000	      0.00000000	      0.00000000
